<?xml version="1.0" encoding="UTF-8" standalone="no"?><!DOCTYPE svg PUBLIC "-//W3C//DTD SVG 1.1//EN" "http://www.w3.org/Graphics/SVG/1.1/DTD/svg11.dtd"><svg width="100%" height="100%" viewBox="0 0 567 148" version="1.1" xmlns="http://www.w3.org/2000/svg" xmlns:xlink="http://www.w3.org/1999/xlink" xml:space="preserve" xmlns:serif="http://www.serif.com/" style="fill-rule:evenodd;clip-rule:evenodd;stroke-linejoin:round;stroke-miterlimit:2;"><g transform="matrix(0.24,0,0,0.24,0,0)"><g transform="matrix(0.910061,0,0,0.913318,-420.022,-420.143)"><clipPath id="_clip1"><rect x="448.819" y="448.819" width="2595.66" height="669"/></clipPath><g clip-path="url(#_clip1)"><path d="M713.641,962.641C702.441,951.441 695.441,940.441 692.641,929.641C689.841,918.841 687.641,905.641 686.041,890.041C672.841,890.041 661.141,892.541 650.941,897.541C640.741,902.541 630.041,907.641 618.841,912.841C597.641,915.241 576.241,914.241 554.641,909.841C533.041,905.441 514.441,895.841 498.841,881.041C482.041,859.841 474.041,837.041 474.841,812.641C477.641,807.841 480.541,802.841 483.541,797.641C486.541,792.441 489.641,787.241 492.841,782.041C508.041,760.441 527.841,743.041 552.241,729.841C559.441,727.441 566.641,724.841 573.841,722.041C581.041,719.241 588.241,716.441 595.441,713.641C605.441,695.241 616.441,680.841 628.441,670.441C640.441,660.041 656.241,650.841 675.841,642.841C681.841,641.641 688.141,639.841 694.741,637.441C701.341,635.041 708.041,633.841 714.841,633.841C717.241,631.441 728.441,630.041 748.441,629.641C768.441,629.241 780.641,630.041 785.041,632.041C785.841,635.241 787.041,637.841 788.641,639.841C790.241,639.041 792.441,638.641 795.241,638.641C796.441,649.441 798.441,660.241 801.241,671.041C804.041,681.841 806.041,692.441 807.241,702.841C810.041,704.041 814.641,705.841 821.041,708.241C821.041,705.441 821.241,703.441 821.641,702.241C845.641,662.641 872.041,622.241 900.841,581.041C912.041,563.041 923.241,544.941 934.441,526.741C945.641,508.541 956.841,490.441 968.041,472.441C971.641,473.641 974.741,474.841 977.341,476.041C979.941,477.241 987.041,480.841 998.641,486.841C999.841,492.441 1000.84,498.241 1001.64,504.241C1002.44,510.241 1003.24,516.041 1004.04,521.641C1004.04,521.641 1007.64,522.241 1014.84,523.441C986.041,562.641 957.941,601.941 930.541,641.341C903.141,680.741 876.841,721.241 851.641,762.841C840.841,775.641 829.941,788.441 818.941,801.241C807.941,814.041 797.841,827.441 788.641,841.441C785.041,847.441 781.241,853.941 777.241,860.941C773.241,867.941 770.641,875.041 769.441,882.241C766.241,885.041 764.041,891.841 762.841,902.641C761.641,913.441 761.041,920.041 761.041,922.441L761.041,956.641C749.841,955.841 741.241,955.441 735.241,955.441C734.441,956.241 732.141,957.041 728.341,957.841C724.541,958.641 719.641,960.241 713.641,962.641ZM722.641,698.041C721.841,696.441 721.441,695.441 721.441,695.041C709.841,689.441 697.141,689.341 683.341,694.741C669.541,700.141 656.141,708.041 643.141,718.441C630.141,728.841 618.341,740.141 607.741,752.341C597.141,764.541 589.241,774.641 584.041,782.641C579.241,792.641 576.441,798.541 575.641,800.341C574.841,802.141 574.441,803.641 574.441,804.841C571.641,807.641 570.341,812.641 570.541,819.841C570.741,827.041 571.041,832.441 571.441,836.041C571.841,836.841 572.241,837.741 572.641,838.741C573.041,839.741 574.441,843.041 576.841,848.641C580.041,849.441 584.241,848.741 589.441,846.541C594.641,844.341 598.841,842.641 602.041,841.441C602.441,841.041 606.141,840.241 613.141,839.041C620.141,837.841 623.841,836.841 624.241,836.041C631.441,836.041 638.141,836.141 644.341,836.341C650.541,836.541 656.241,833.841 661.441,828.241C666.641,825.441 672.141,823.041 677.941,821.041C683.741,819.041 689.641,816.841 695.641,814.441L695.641,791.041C693.641,789.841 690.641,788.441 686.641,786.841C685.041,783.641 683.241,779.641 681.241,774.841C679.241,770.041 679.441,765.841 681.841,762.241C685.841,759.041 691.641,754.741 699.241,749.341C706.841,743.941 714.441,738.241 722.041,732.241C722.041,729.041 722.141,725.841 722.341,722.641C722.541,719.441 722.641,716.041 722.641,712.441L722.641,698.041ZM695.641,814.441L695.641,791.041L696.841,791.041L696.841,814.441L695.641,814.441Z" style="fill-rule:nonzero;"/><path d="M1195.44,896.041C1178.64,888.841 1157.84,898.841 1133.04,926.041C1108.24,953.241 1087.44,972.241 1070.64,983.041C1070.24,983.041 1069.74,982.941 1069.14,982.741C1068.54,982.541 1068.24,982.441 1068.24,982.441C1069.44,976.441 1071.04,970.541 1073.04,964.741C1075.04,958.941 1076.04,952.641 1076.04,945.841C1074.04,945.041 1071.84,944.241 1069.44,943.441C1069.04,938.641 1068.64,933.741 1068.24,928.741C1067.84,923.741 1067.64,918.641 1067.64,913.441L1050.24,913.441C1049.04,915.841 1047.94,917.841 1046.94,919.441C1045.94,921.041 1042.64,925.641 1037.04,933.241C1017.84,951.641 1006.04,962.941 1001.64,967.141C997.241,971.341 991.841,976.841 985.441,983.641C982.641,984.041 977.141,984.941 968.941,986.341C960.741,987.741 956.041,989.041 954.841,990.241C950.441,990.641 946.541,990.841 943.141,990.841L912.841,990.841C912.041,989.241 911.241,987.441 910.441,985.441C909.641,983.441 909.041,981.241 908.641,978.841C898.641,977.641 888.641,974.841 878.641,970.441C868.641,966.041 861.241,959.041 856.441,949.441C856.041,949.441 855.741,949.341 855.541,949.141C855.341,948.941 855.241,948.841 855.241,948.841C854.041,946.441 852.841,943.741 851.641,940.741C850.441,937.741 849.241,934.841 848.041,932.041C845.641,918.841 845.541,905.641 847.741,892.441C849.941,879.241 853.641,866.441 858.841,854.041C864.441,848.841 870.041,843.541 875.641,838.141C881.241,832.741 887.041,827.241 893.041,821.641C913.441,800.041 933.041,777.541 951.841,754.141C970.641,730.741 989.441,707.241 1008.24,683.641C1013.04,684.441 1017.74,685.841 1022.34,687.841C1026.94,689.841 1031.84,690.641 1037.04,690.241C1039.84,687.841 1042.74,685.341 1045.74,682.741C1048.74,680.141 1051.84,677.641 1055.04,675.241C1067.04,674.441 1080.44,677.241 1095.24,683.641C1108.44,694.041 1115.04,705.641 1115.04,718.441C1120.64,716.841 1125.04,715.641 1128.24,714.841C1141.44,706.841 1151.34,695.941 1157.94,682.141C1164.54,668.341 1172.44,655.441 1181.64,643.441L1184.04,643.441C1193.64,655.441 1206.24,663.241 1221.84,666.841C1221.84,682.841 1218.04,697.241 1210.44,710.041C1205.24,717.241 1201.74,721.941 1199.94,724.141C1198.14,726.341 1194.64,730.641 1189.44,737.041C1188.24,739.841 1186.14,744.441 1183.14,750.841C1180.14,757.241 1178.64,761.841 1178.64,764.641C1173.84,776.241 1170.34,785.041 1168.14,791.041C1165.94,797.041 1160.64,810.841 1152.24,832.441C1173.04,832.041 1190.24,828.441 1203.84,821.641C1207.44,819.641 1212.64,818.941 1219.44,819.541C1226.24,820.141 1231.24,820.841 1234.44,821.641L1195.44,896.041ZM990.241,840.841L990.241,828.241C1003.44,818.241 1015.84,807.541 1027.44,796.141C1039.04,784.741 1044.84,770.041 1044.84,752.041C1034.04,748.841 1023.24,747.241 1012.44,747.241C1004.04,758.041 995.541,768.741 986.941,779.341C978.341,789.941 969.841,800.441 961.441,810.841C949.841,827.641 938.041,847.341 926.041,869.941C914.041,892.541 910.441,914.641 915.241,936.241C922.841,936.241 931.141,934.741 940.141,931.741C949.141,928.741 957.641,926.441 965.641,924.841C966.041,920.041 966.841,916.041 968.041,912.841C983.241,905.241 998.141,896.641 1012.74,887.041C1027.34,877.441 1035.64,862.841 1037.64,843.241C1034.44,845.241 1031.04,847.341 1027.44,849.541C1023.84,851.741 1020.44,852.841 1017.24,852.841C1014.04,848.441 1011.44,844.441 1009.44,840.841L990.241,840.841Z" style="fill-rule:nonzero;"/><path d="M1512.84,470.641L1515.24,470.641C1517.24,483.841 1519.24,496.741 1521.24,509.341C1523.24,521.941 1525.44,534.641 1527.84,547.441C1527.44,549.441 1527.24,552.241 1527.24,555.841C1523.24,565.441 1519.54,575.641 1516.14,586.441C1512.74,597.241 1508.84,607.041 1504.44,615.841C1492.44,617.041 1482.64,619.441 1475.04,623.041C1467.44,626.641 1458.24,631.441 1447.44,637.441C1441.44,639.841 1434.64,642.241 1427.04,644.641C1427.44,634.241 1429.14,626.541 1432.14,621.541C1435.14,616.541 1440.04,609.641 1446.84,600.841C1446.84,593.641 1446.64,586.241 1446.24,578.641C1445.84,571.041 1445.64,563.241 1445.64,555.241L1442.64,555.241C1421.04,578.041 1403.74,603.241 1390.74,630.841C1377.74,658.441 1364.64,686.241 1351.44,714.241C1351.84,717.441 1354.64,719.741 1359.84,721.141C1365.04,722.541 1368.84,722.041 1371.24,719.641C1388.04,716.841 1404.44,710.641 1420.44,701.041C1436.44,691.441 1451.84,682.241 1466.64,673.441C1473.84,673.441 1478.74,673.841 1481.34,674.641C1483.94,675.441 1488.84,675.241 1496.04,674.041C1496.04,675.241 1495.74,677.241 1495.14,680.041C1494.54,682.841 1494.64,685.241 1495.44,687.241C1482.64,699.241 1475.14,706.241 1472.94,708.241C1470.74,710.241 1463.24,711.041 1450.44,710.641C1442.44,715.841 1437.64,719.141 1436.04,720.541C1434.44,721.941 1433.24,722.641 1432.44,722.641C1430.04,731.441 1427.94,737.541 1426.14,740.941C1424.34,744.341 1420.04,748.641 1413.24,753.841C1391.64,758.641 1370.64,764.741 1350.24,772.141C1329.84,779.541 1309.44,786.841 1289.04,794.041C1282.64,810.841 1276.64,827.941 1271.04,845.341C1265.44,862.741 1259.84,879.841 1254.24,896.641C1245.84,904.641 1237.94,912.441 1230.54,920.041C1223.14,927.641 1216.24,936.241 1209.84,945.841C1208.24,949.841 1206.54,953.741 1204.74,957.541C1202.94,961.341 1201.44,965.041 1200.24,968.641C1198.64,975.841 1197.14,982.741 1195.74,989.341C1194.34,995.941 1193.04,1002.64 1191.84,1009.44C1190.24,1010.64 1185.94,1012.54 1178.94,1015.14C1171.94,1017.74 1164.24,1020.64 1155.84,1023.84C1151.84,1027.04 1148.84,1028.64 1146.84,1028.64C1146.44,1027.44 1145.94,1026.24 1145.34,1025.04C1144.74,1023.84 1144.04,1022.64 1143.24,1021.44L1127.64,1021.44C1126.04,1025.04 1124.34,1028.44 1122.54,1031.64C1120.74,1034.84 1118.84,1038.04 1116.84,1041.24L1116.84,1029.24C1120.44,1004.04 1128.44,979.941 1140.84,956.941C1153.24,933.941 1163.04,910.441 1170.24,886.441C1184.64,855.241 1199.64,825.141 1215.24,796.141C1230.84,767.141 1245.84,737.241 1260.24,706.441C1266.64,704.441 1274.44,700.641 1283.64,695.041C1300.44,680.641 1313.64,664.241 1323.24,645.841C1332.84,627.441 1342.84,608.441 1353.24,588.841C1356.44,584.441 1359.54,579.941 1362.54,575.341C1365.54,570.741 1368.84,566.041 1372.44,561.241C1376.04,558.041 1380.84,553.541 1386.84,547.741C1392.84,541.941 1395.84,536.441 1395.84,531.241C1400.64,530.441 1404.44,530.041 1407.24,530.041C1412.04,519.641 1415.14,513.341 1416.54,511.141C1417.94,508.941 1419.84,506.041 1422.24,502.441C1430.64,494.441 1439.04,489.741 1447.44,488.341C1455.84,486.941 1465.84,485.641 1477.44,484.441C1483.44,482.041 1489.34,479.541 1495.14,476.941C1500.94,474.341 1506.84,472.241 1512.84,470.641Z" style="fill-rule:nonzero;"/><path d="M1527.24,621.241C1524.84,612.441 1522.84,606.041 1521.24,602.041C1523.64,600.841 1526.24,599.341 1529.04,597.541C1531.84,595.741 1534.64,594.041 1537.44,592.441C1535.44,584.041 1534.14,576.541 1533.54,569.941C1532.94,563.341 1534.64,556.041 1538.64,548.041C1545.04,542.441 1551.84,539.641 1559.04,539.641L1582.44,539.641C1592.44,540.841 1599.14,541.541 1602.54,541.741C1605.94,541.941 1612.44,542.041 1622.04,542.041C1628.04,540.841 1631.64,540.241 1632.84,540.241C1634.04,540.241 1635.04,540.441 1635.84,540.841C1639.84,538.441 1642.94,533.441 1645.14,525.841C1647.34,518.241 1650.04,512.241 1653.24,507.841C1656.84,507.041 1660.34,506.141 1663.74,505.141C1667.14,504.141 1670.64,503.041 1674.24,501.841C1680.24,514.241 1684.04,521.741 1685.64,524.341C1687.24,526.941 1688.64,529.241 1689.84,531.241C1695.44,527.241 1699.24,524.841 1701.24,524.041C1702.44,528.841 1703.54,533.041 1704.54,536.641C1705.54,540.241 1708.64,550.241 1713.84,566.641C1740.24,571.041 1766.34,576.041 1792.14,581.641C1817.94,587.241 1843.44,594.841 1868.64,604.441C1869.04,604.841 1869.64,605.341 1870.44,605.941C1871.24,606.541 1872.04,606.841 1872.84,606.841C1865.64,609.641 1858.44,612.341 1851.24,614.941C1844.04,617.541 1836.84,620.041 1829.64,622.441C1827.24,623.241 1825.04,624.041 1823.04,624.841C1821.04,625.641 1819.04,626.241 1817.04,626.641C1805.44,629.441 1794.64,630.941 1784.64,631.141C1774.64,631.341 1763.84,631.041 1752.24,630.241C1749.84,632.241 1748.44,634.641 1748.04,637.441C1744.84,638.641 1742.84,639.041 1742.04,638.641C1729.64,638.641 1717.54,637.541 1705.74,635.341C1693.94,633.141 1682.04,632.241 1670.04,632.641C1666.84,633.841 1662.04,635.241 1655.64,636.841C1651.24,650.441 1644.44,661.741 1635.24,670.741C1626.04,679.741 1616.24,688.641 1605.84,697.441C1602.24,705.041 1599.84,710.241 1598.64,713.041C1597.44,715.841 1595.04,721.841 1591.44,731.041C1589.44,739.041 1587.44,749.041 1585.44,761.041C1580.64,763.441 1577.04,765.041 1574.64,765.841C1562.24,801.441 1545.54,834.741 1524.54,865.741C1503.54,896.741 1488.44,930.441 1479.24,966.841C1472.84,969.641 1468.84,971.241 1467.24,971.641C1467.64,976.441 1467.14,980.841 1465.74,984.841C1464.34,988.841 1463.04,993.041 1461.84,997.441C1458.24,998.641 1454.94,999.741 1451.94,1000.74C1448.94,1001.74 1446.04,1002.64 1443.24,1003.44C1441.24,1003.44 1439.44,1001.94 1437.84,998.941C1436.24,995.941 1435.04,993.841 1434.24,992.641C1431.84,995.041 1426.64,1000.14 1418.64,1007.94C1410.64,1015.74 1405.44,1019.64 1403.04,1019.64C1412.64,995.641 1423.04,971.841 1434.24,948.241C1445.44,924.641 1456.64,901.041 1467.84,877.441C1479.04,851.441 1490.04,825.341 1500.84,799.141C1511.64,772.941 1520.64,746.041 1527.84,718.441C1541.84,711.241 1552.24,698.841 1559.04,681.241C1565.84,663.641 1570.44,647.641 1572.84,633.241C1572.44,632.041 1572.44,630.641 1572.84,629.041C1565.24,627.841 1557.64,626.541 1550.04,625.141C1542.44,623.741 1534.84,622.441 1527.24,621.241Z" style="fill-rule:nonzero;"/><path d="M1879.44,470.641C1880.24,471.441 1881.04,472.041 1881.84,472.441C1881.84,473.241 1881.64,473.841 1881.24,474.241C1882.84,477.041 1885.44,480.441 1889.04,484.441C1887.44,487.641 1886.04,491.441 1884.84,495.841C1887.64,497.841 1891.04,500.441 1895.04,503.641C1898.64,504.841 1901.44,505.641 1903.44,506.041C1905.44,506.441 1907.04,506.841 1908.24,507.241C1908.24,516.441 1907.24,524.441 1905.24,531.241C1903.24,538.041 1902.24,543.641 1902.24,548.041C1901.04,550.841 1896.14,558.741 1887.54,571.741C1878.94,584.741 1875.04,592.641 1875.84,595.441C1869.84,605.841 1865.94,615.541 1864.14,624.541C1862.34,633.541 1859.04,643.241 1854.24,653.641C1854.24,654.441 1853.24,656.941 1851.24,661.141C1849.24,665.341 1848.24,667.841 1848.24,668.641C1844.64,674.641 1838.14,685.041 1828.74,699.841C1819.34,714.641 1811.04,729.841 1803.84,745.441C1805.44,746.241 1814.04,741.241 1829.64,730.441C1845.24,719.641 1854.24,714.841 1856.64,716.041C1871.84,708.841 1884.24,705.141 1893.84,704.941C1903.44,704.741 1916.44,702.841 1932.84,699.241C1937.64,694.041 1945.64,684.841 1956.84,671.641C1968.04,658.441 1976.04,659.041 1980.84,673.441L1991.04,705.841C1999.44,714.641 1998.34,728.441 1987.74,747.241C1977.14,766.041 1967.64,787.841 1959.24,812.641C1958.44,812.641 1953.34,821.941 1943.94,840.541C1934.54,859.141 1932.24,872.041 1937.04,879.241C1932.24,888.841 1926.64,897.941 1920.24,906.541C1913.84,915.141 1907.24,925.241 1900.44,936.841L1864.44,935.641C1864.44,935.641 1861.04,932.741 1854.24,926.941C1847.44,921.141 1844.04,918.041 1844.04,917.641C1849.24,904.441 1851.84,896.841 1851.84,894.841C1851.84,892.841 1855.44,885.841 1862.64,873.841C1862.24,871.441 1864.34,866.541 1868.94,859.141C1873.54,851.741 1877.04,846.241 1879.44,842.641C1879.04,841.841 1881.64,836.641 1887.24,827.041C1892.84,817.441 1895.64,812.241 1895.64,811.441C1894.44,805.441 1899.44,796.341 1910.64,784.141C1921.84,771.941 1924.64,763.641 1919.04,759.241C1911.84,756.041 1900.24,758.041 1884.24,765.241C1868.24,772.441 1854.84,776.841 1844.04,778.441C1826.04,782.441 1813.54,787.441 1806.54,793.441C1799.54,799.441 1788.44,806.841 1773.24,815.641C1764.84,825.241 1758.74,832.541 1754.94,837.541C1751.14,842.541 1747.04,851.641 1742.64,864.841C1737.44,868.441 1731.44,878.641 1724.64,895.441C1717.84,912.241 1712.44,924.641 1708.44,932.641C1705.24,939.041 1700.34,943.041 1693.74,944.641C1687.14,946.241 1682.44,948.041 1679.64,950.041C1672.04,937.241 1664.74,930.241 1657.74,929.041C1650.74,927.841 1643.64,921.041 1636.44,908.641C1645.24,899.041 1652.24,882.541 1657.44,859.141C1662.64,835.741 1670.04,819.041 1679.64,809.041C1682.04,807.041 1685.24,805.041 1689.24,803.041C1704.04,795.441 1712.94,790.741 1715.94,788.941C1718.94,787.141 1720.84,786.041 1721.64,785.641C1722.84,784.441 1724.04,783.041 1725.24,781.441C1726.44,779.841 1727.64,778.241 1728.84,776.641C1728.44,776.241 1728.54,774.541 1729.14,771.541C1729.74,768.541 1730.84,760.041 1732.44,746.041C1745.64,724.041 1758.54,701.341 1771.14,677.941C1783.74,654.541 1796.24,631.441 1808.64,608.641C1808.64,608.241 1814.24,597.241 1825.44,575.641C1836.64,554.041 1842.24,542.841 1842.24,542.041C1855.84,516.041 1863.94,500.241 1866.54,494.641C1869.14,489.041 1872.04,483.841 1875.24,479.041C1874.44,478.241 1874.44,477.441 1875.24,476.641C1877.64,473.041 1879.04,471.041 1879.44,470.641Z" style="fill-rule:nonzero;"/><path d="M2030.64,965.041C2024.24,960.641 2017.74,956.841 2011.14,953.641C2004.54,950.441 1999.44,945.241 1995.84,938.041C1987.84,936.441 1982.24,934.641 1979.04,932.641C1980.64,920.241 1983.04,910.041 1986.24,902.041C1989.44,894.041 1995.64,885.841 2004.84,877.441C2008.84,875.041 2012.64,871.641 2016.24,867.241C2019.84,862.841 2024.04,859.041 2028.84,855.841C2037.24,823.041 2048.54,790.341 2062.74,757.741C2076.94,725.141 2097.24,697.441 2123.64,674.641C2130.84,670.241 2136.64,667.441 2141.04,666.241C2141.44,670.641 2142.04,674.941 2142.84,679.141C2143.64,683.341 2144.04,687.441 2144.04,691.441C2148.04,693.841 2151.04,694.841 2153.04,694.441C2155.04,694.041 2158.24,693.241 2162.64,692.041C2161.84,695.241 2161.14,698.341 2160.54,701.341C2159.94,704.341 2159.44,707.241 2159.04,710.041C2156.64,715.241 2153.64,720.141 2150.04,724.741C2146.44,729.341 2143.04,733.841 2139.84,738.241C2135.84,750.241 2130.74,760.841 2124.54,770.041C2118.34,779.241 2114.04,790.041 2111.64,802.441C2110.44,803.641 2109.04,809.241 2107.44,819.241C2105.84,829.241 2105.04,834.841 2105.04,836.041C2105.44,847.241 2111.94,850.641 2124.54,846.241C2137.14,841.841 2150.04,836.641 2163.24,830.641C2173.24,825.841 2181.14,821.141 2186.94,816.541C2192.74,811.941 2200.04,805.641 2208.84,797.641C2218.44,780.841 2227.04,767.241 2234.64,756.841C2242.24,746.441 2250.24,734.641 2258.64,721.441C2269.84,710.241 2278.54,701.941 2284.74,696.541C2290.94,691.141 2297.44,684.841 2304.24,677.641C2304.64,678.441 2308.24,679.141 2315.04,679.741C2321.84,680.341 2326.04,684.241 2327.64,691.441C2329.24,691.441 2332.24,691.541 2336.64,691.741C2341.04,691.941 2344.24,692.041 2346.24,692.041C2345.44,698.041 2343.74,704.141 2341.14,710.341C2338.54,716.541 2336.24,722.241 2334.24,727.441C2317.44,762.641 2298.04,796.341 2276.04,828.541C2254.04,860.741 2233.84,893.841 2215.44,927.841C2196.24,929.841 2184.94,931.041 2181.54,931.441C2178.14,931.841 2176.24,932.241 2175.84,932.641C2163.04,936.641 2157.04,938.641 2157.84,938.641C2158.64,928.641 2158.74,923.541 2158.14,923.341C2157.54,923.141 2159.04,918.241 2162.64,908.641C2165.04,906.241 2167.04,901.641 2168.64,894.841C2170.24,888.041 2171.04,883.441 2171.04,881.041C2170.24,877.041 2163.94,876.741 2152.14,880.141C2140.34,883.541 2128.44,889.441 2116.44,897.841C2108.04,905.041 2102.54,910.441 2099.94,914.041C2097.34,917.641 2092.04,922.841 2084.04,929.641C2062.44,945.641 2048.34,955.541 2041.74,959.341C2035.14,963.141 2031.44,965.041 2030.64,965.041Z" style="fill-rule:nonzero;"/><path d="M2654.04,817.441C2630.04,828.241 2609.84,842.341 2593.44,859.741C2577.04,877.141 2562.24,896.641 2549.04,918.241C2545.44,921.441 2540.44,923.841 2534.04,925.441C2527.64,927.041 2522.24,926.441 2517.84,923.641C2507.84,911.641 2505.64,897.041 2511.24,879.841C2516.84,862.641 2520.84,846.841 2523.24,832.441C2525.24,830.441 2526.74,827.041 2527.74,822.241C2528.74,817.441 2529.64,813.441 2530.44,810.241C2531.64,806.641 2533.44,803.341 2535.84,800.341C2538.24,797.341 2539.44,794.641 2539.44,792.241C2537.84,781.841 2527.04,777.041 2507.04,777.841C2496.64,778.641 2487.04,782.141 2478.24,788.341C2469.44,794.541 2463.24,797.641 2459.64,797.641C2449.64,807.641 2437.14,818.641 2422.14,830.641C2407.14,842.641 2397.24,854.241 2392.44,865.441C2388.44,867.841 2381.54,878.641 2371.74,897.841C2361.94,917.041 2355.24,927.841 2351.64,930.241C2343.64,932.641 2335.94,934.841 2328.54,936.841C2321.14,938.841 2313.64,939.841 2306.04,939.841C2306.04,932.241 2304.94,924.241 2302.74,915.841C2300.54,907.441 2299.04,899.041 2298.24,890.641C2321.84,851.441 2348.24,813.341 2377.44,776.341C2406.64,739.341 2430.64,699.441 2449.44,656.641C2453.04,656.241 2458.34,658.141 2465.34,662.341C2472.34,666.541 2477.64,669.441 2481.24,671.041C2481.24,690.241 2476.74,703.541 2467.74,710.941C2458.74,718.341 2451.84,731.041 2447.04,749.041C2451.04,750.241 2459.24,746.441 2471.64,737.641C2484.04,728.841 2493.84,722.041 2501.04,717.241C2503.04,713.641 2510.64,707.941 2523.84,700.141C2537.04,692.341 2545.44,687.041 2549.04,684.241C2571.44,668.641 2585.44,660.941 2591.04,661.141C2596.64,661.341 2602.24,657.641 2607.84,650.041C2613.44,646.041 2619.24,644.341 2625.24,644.941C2631.24,645.541 2637.84,645.841 2645.04,645.841C2649.44,656.641 2650.74,664.841 2648.94,670.441C2647.14,676.041 2645.44,684.441 2643.84,695.641C2639.04,706.441 2634.94,716.441 2631.54,725.641C2628.14,734.841 2624.04,744.841 2619.24,755.641C2618.84,760.441 2617.64,765.041 2615.64,769.441C2613.64,773.841 2612.64,778.241 2612.64,782.641C2632.24,778.241 2651.44,769.641 2670.24,756.841C2671.04,756.441 2671.94,756.741 2672.94,757.741C2673.94,758.741 2674.84,758.841 2675.64,758.041L2654.04,817.441Z" style="fill-rule:nonzero;"/><path d="M2580.24,1139.64C2580.24,1138.84 2580.04,1137.64 2579.64,1136.04C2579.24,1134.44 2578.24,1129.24 2576.64,1120.44C2567.44,1120.44 2560.44,1120.64 2555.64,1121.04C2555.64,1118.24 2555.44,1114.84 2555.04,1110.84C2554.64,1106.84 2553.84,1104.04 2552.64,1102.44C2561.04,1088.44 2569.54,1074.74 2578.14,1061.34C2586.74,1047.94 2595.24,1034.44 2603.64,1020.84C2636.04,962.441 2659.24,917.141 2673.24,884.941C2687.24,852.741 2697.64,828.841 2704.44,813.241C2707.24,809.641 2710.84,804.041 2715.24,796.441C2719.64,788.841 2721.84,782.241 2721.84,776.641C2719.44,775.841 2717.14,774.941 2714.94,773.941C2712.74,772.941 2710.44,771.841 2708.04,770.641C2708.04,769.841 2709.24,767.741 2711.64,764.341C2714.04,760.941 2717.24,755.641 2721.24,748.441C2722.44,744.841 2724.54,739.341 2727.54,731.941C2730.54,724.541 2732.04,718.441 2732.04,713.641C2736.44,713.241 2740.14,712.741 2743.14,712.141C2746.14,711.541 2753.64,710.641 2765.64,709.441C2766.44,708.641 2767.24,708.241 2768.04,708.241C2774.84,696.241 2781.54,684.041 2788.14,671.641C2794.74,659.241 2801.44,646.841 2808.24,634.441C2814.64,629.241 2820.64,624.041 2826.24,618.841C2831.84,613.641 2836.64,607.441 2840.64,600.241C2841.84,600.241 2843.34,600.141 2845.14,599.941C2846.94,599.741 2848.64,599.441 2850.24,599.041C2854.24,586.241 2858.94,573.341 2864.34,560.341C2869.74,547.341 2875.24,534.441 2880.84,521.641C2882.44,520.841 2885.84,520.641 2891.04,521.041C2893.44,531.441 2895.44,545.041 2897.04,561.841C2898.24,564.641 2899.64,567.241 2901.24,569.641C2906.84,564.841 2910.84,562.241 2913.24,561.841C2915.64,564.641 2916.44,566.541 2915.64,567.541C2914.84,568.541 2914.44,570.441 2914.44,573.241C2904.84,592.441 2895.74,612.041 2887.14,632.041C2878.54,652.041 2871.64,672.241 2866.44,692.641C2866.04,694.241 2865.74,695.941 2865.54,697.741C2865.34,699.541 2865.24,701.241 2865.24,702.841C2872.44,702.841 2879.84,701.841 2887.44,699.841C2895.04,697.841 2902.44,696.241 2909.64,695.041C2909.64,695.041 2911.24,693.441 2914.44,690.241C2928.44,681.441 2943.24,675.241 2958.84,671.641C2974.44,668.041 2990.44,665.041 3006.84,662.641C3007.24,662.241 3014.34,661.041 3028.14,659.041C3041.94,657.041 3049.24,655.841 3050.04,655.441C3059.24,654.241 3064.64,653.441 3066.24,653.041C3067.84,652.641 3069.24,652.441 3070.44,652.441C3050.04,671.641 3038.04,682.941 3034.44,686.341C3030.84,689.741 3028.64,692.041 3027.84,693.241C3018.24,693.241 3010.34,693.541 3004.14,694.141C2997.94,694.741 2991.24,697.641 2984.04,702.841C2977.64,710.441 2972.84,717.441 2969.64,723.841C2948.44,733.041 2927.94,742.841 2908.14,753.241C2888.34,763.641 2868.64,774.441 2849.04,785.641C2846.24,793.641 2848.84,801.841 2856.84,810.241C2860.84,811.041 2863.64,811.841 2865.24,812.641C2870.84,825.841 2876.74,841.441 2882.94,859.441C2889.14,877.441 2899.64,889.241 2914.44,894.841L2914.44,905.641C2920.84,908.441 2927.24,911.241 2933.64,914.041C2940.04,916.841 2945.64,920.841 2950.44,926.041C2949.64,930.841 2949.24,934.441 2949.24,936.841C2940.84,936.041 2932.54,935.141 2924.34,934.141C2916.14,933.141 2907.84,932.041 2899.44,930.841C2897.44,930.041 2895.34,928.741 2893.14,926.941C2890.94,925.141 2884.24,919.441 2873.04,909.841C2858.64,899.841 2841.44,888.741 2821.44,876.541C2801.44,864.341 2782.44,858.641 2764.44,859.441C2755.24,869.441 2746.24,879.441 2737.44,889.441C2728.64,899.441 2719.84,909.241 2711.04,918.841C2691.44,957.241 2670.44,994.641 2648.04,1031.04C2625.64,1067.44 2603.04,1103.64 2580.24,1139.64Z" style="fill-rule:nonzero;"/></g></g></g></svg>