<svg width="80" height="36" viewBox="0 0 80 36" fill="none" xmlns="http://www.w3.org/2000/svg">
<path d="M13 9.632C13.96 9.056 15.352 8.176 17.176 6.992C19 5.808 19.816 5.456 19.624 5.936C18.472 8.912 17.704 10.464 17.32 10.592C16.968 10.72 16.312 11.312 15.352 12.368C13.688 13.68 12.552 14.544 11.944 14.96C11.368 15.344 10.648 16.448 9.784 18.272C9.976 19.424 11.08 20.032 13.096 20.096C15.112 20.16 16.264 20.192 16.552 20.192C16.904 19.392 17.272 18.608 17.656 17.84C18.04 17.072 18.376 16.368 18.664 15.728C18.888 15.376 19.176 14.72 19.528 13.76C19.88 12.768 20.2 12.192 20.488 12.032C20.904 11.168 20.984 10.688 20.728 10.592C20.472 10.464 20.536 9.952 20.92 9.056C21.112 8.96 21.704 8.176 22.696 6.704C23.72 5.232 24.296 4.384 24.424 4.16C24.68 3.936 25.112 3.504 25.72 2.864C26.328 2.224 26.92 1.664 27.496 1.184C27.592 1.248 27.688 1.344 27.784 1.472C27.912 1.568 28.12 1.696 28.408 1.856C28.568 1.952 28.728 2.016 28.888 2.048C29.048 2.08 29.224 2.112 29.416 2.144C29.608 1.888 29.784 1.616 29.944 1.328C30.104 1.328 30.264 1.328 30.424 1.328C30.584 1.328 30.76 1.328 30.952 1.328C30.984 1.296 31.016 1.264 31.048 1.232C31.08 1.232 31.112 1.248 31.144 1.28C31.208 1.28 31.272 1.28 31.336 1.28C31.272 1.408 31.208 1.6 31.144 1.856C31.08 1.92 31.016 1.968 30.952 2C30.76 2.384 30.552 2.8 30.328 3.248C30.104 3.696 29.512 4.96 28.552 7.04C28.488 7.648 28.296 8.4 27.976 9.296L22.84 17.12C22.552 17.6 22.296 18.128 22.072 18.704C21.848 19.28 21.576 19.92 21.256 20.624C21.096 20.784 20.936 21.024 20.776 21.344C21.096 21.344 21.736 21.152 22.696 20.768C22.792 20.832 22.984 20.928 23.272 21.056C23.592 21.152 24.632 21.536 26.392 22.208C26.328 22.272 26.232 22.32 26.104 22.352C26.008 22.384 25.64 22.464 25 22.592C24.968 22.592 24.488 22.704 23.56 22.928C22.632 23.12 22.152 23.2 22.12 23.168C21.352 23.424 20.52 23.616 19.624 23.744C19.624 23.744 19.512 24 19.288 24.512C18.904 24.992 18.744 25.2 18.808 25.136C18.808 25.168 18.808 25.168 18.808 25.136C18.808 25.104 18.808 25.088 18.808 25.088C18.712 25.28 18.632 25.456 18.568 25.616C18.504 25.776 18.44 25.92 18.376 26.048L18.52 26.096C18.328 26.48 18.184 26.784 18.088 27.008C17.608 28.864 17.016 30.4 16.312 31.616C15.608 32.8 14.872 34.256 14.104 35.984C13.816 35.952 13.576 35.904 13.384 35.84C13.192 35.776 12.664 35.584 11.8 35.264C11.608 34.88 11.464 34.48 11.368 34.064C11.272 33.648 11.176 33.232 11.08 32.816C11.08 32.816 10.808 32.816 10.264 32.816C10.936 31.536 11.608 30.256 12.28 28.976C12.984 27.664 13.672 26.352 14.344 25.04H14.488C14.552 24.848 14.632 24.64 14.728 24.416C14.824 24.16 14.92 23.888 15.016 23.6C14.536 23.728 14.056 23.824 13.576 23.888C13.096 23.952 12.648 24.064 12.232 24.224C10.856 24.256 10.136 24.304 10.072 24.368C10.04 24.4 9.384 24.448 8.104 24.512C7.912 24.576 7.624 24.64 7.24 24.704C6.568 24.704 5.72 24.368 4.696 23.696C3.704 22.992 2.68 22.432 1.624 22.016C1.496 21.76 1.464 21.504 1.528 21.248C1.176 21.056 0.92 20.928 0.76 20.864C0.888 20.32 1.208 20 1.72 19.904C2.264 19.808 2.584 19.472 2.68 18.896C4.504 16.944 6.168 15.472 7.672 14.48C9.208 13.456 10.984 11.84 13 9.632ZM30.4503 26.624C30.4183 26.624 30.3863 26.624 30.3543 26.624C30.2263 26.464 29.9703 26.144 29.5863 25.664C29.1063 24.832 28.8343 23.968 28.7703 23.072C28.7063 22.144 28.7223 21.216 28.8183 20.288C29.0743 19.84 29.3303 19.392 29.5863 18.944C29.8743 18.464 30.1623 17.984 30.4503 17.504C31.4103 15.68 32.1303 13.648 32.6103 11.408C33.0903 9.168 33.7303 7.088 34.5303 5.168C34.8503 5.168 35.4743 4.752 36.4023 3.92C37.3303 3.056 37.9703 2.576 38.3223 2.48C38.5783 2.064 39.0743 1.888 39.8103 1.952C40.5463 2.016 40.9463 2 41.0103 1.904C41.9383 1.52 43.0103 1.2 44.2263 0.943999C45.4743 0.655999 46.4823 0.927999 47.2503 1.76C47.2503 1.76 47.4263 1.92 47.7783 2.24C48.1303 2.56 48.3223 2.72 48.3543 2.72C48.6743 3.168 48.9303 3.488 49.1223 3.68C49.5383 4.544 49.7943 5.44 49.8903 6.368C49.9863 7.264 49.9863 8.16 49.8903 9.056C49.8903 9.696 49.5703 10.688 48.9303 12.032C48.3223 13.376 47.5863 14.864 46.7223 16.496C45.8903 18.096 45.0263 19.728 44.1303 21.392C43.2343 23.056 42.5463 24.48 42.0663 25.664C41.7143 25.728 41.2823 25.824 40.7703 25.952C40.2583 26.08 39.8423 26.192 39.5223 26.288C38.6583 27.632 37.1863 28.32 35.1063 28.352C33.0263 28.352 31.4743 27.776 30.4503 26.624ZM45.2823 8.048C44.7063 6.896 44.0183 6.352 43.2183 6.416C42.4503 6.48 41.4903 6.56 40.3383 6.656C39.8903 7.04 39.4583 7.424 39.0423 7.808C38.6263 8.192 38.1303 8.704 37.5543 9.344C37.3303 9.632 37.0423 10.208 36.6903 11.072C36.3703 11.936 36.1143 12.576 35.9223 12.992C35.6343 13.824 35.1543 15.168 34.4823 17.024C33.8103 18.88 33.4583 20.304 33.4263 21.296L34.6263 21.344C35.5863 21.984 36.4503 22.176 37.2183 21.92C38.0183 21.664 38.4663 21.248 38.5623 20.672C39.3303 20.032 40.3223 18.944 41.5383 17.408C42.7543 15.872 43.5543 14.672 43.9383 13.808C44.1943 13.008 44.4663 12.112 44.7543 11.12C45.0423 10.096 45.2183 9.072 45.2823 8.048ZM61.2344 9.632C62.1944 9.056 63.5864 8.176 65.4104 6.992C67.2344 5.808 68.0504 5.456 67.8584 5.936C66.7064 8.912 65.9384 10.464 65.5544 10.592C65.2024 10.72 64.5464 11.312 63.5864 12.368C61.9224 13.68 60.7864 14.544 60.1784 14.96C59.6024 15.344 58.8824 16.448 58.0184 18.272C58.2104 19.424 59.3144 20.032 61.3304 20.096C63.3464 20.16 64.4984 20.192 64.7864 20.192C65.1384 19.392 65.5064 18.608 65.8904 17.84C66.2744 17.072 66.6104 16.368 66.8984 15.728C67.1224 15.376 67.4104 14.72 67.7624 13.76C68.1144 12.768 68.4344 12.192 68.7224 12.032C69.1384 11.168 69.2184 10.688 68.9624 10.592C68.7064 10.464 68.7704 9.952 69.1544 9.056C69.3464 8.96 69.9384 8.176 70.9304 6.704C71.9544 5.232 72.5304 4.384 72.6584 4.16C72.9144 3.936 73.3464 3.504 73.9544 2.864C74.5624 2.224 75.1544 1.664 75.7304 1.184C75.8264 1.248 75.9224 1.344 76.0184 1.472C76.1464 1.568 76.3544 1.696 76.6424 1.856C76.8024 1.952 76.9624 2.016 77.1224 2.048C77.2824 2.08 77.4584 2.112 77.6504 2.144C77.8424 1.888 78.0184 1.616 78.1784 1.328C78.3384 1.328 78.4984 1.328 78.6584 1.328C78.8184 1.328 78.9944 1.328 79.1864 1.328C79.2184 1.296 79.2504 1.264 79.2824 1.232C79.3144 1.232 79.3464 1.248 79.3784 1.28C79.4424 1.28 79.5064 1.28 79.5704 1.28C79.5064 1.408 79.4424 1.6 79.3784 1.856C79.3144 1.92 79.2504 1.968 79.1864 2C78.9944 2.384 78.7864 2.8 78.5624 3.248C78.3384 3.696 77.7464 4.96 76.7864 7.04C76.7224 7.648 76.5304 8.4 76.2104 9.296L71.0744 17.12C70.7864 17.6 70.5304 18.128 70.3064 18.704C70.0824 19.28 69.8104 19.92 69.4904 20.624C69.3304 20.784 69.1704 21.024 69.0104 21.344C69.3304 21.344 69.9704 21.152 70.9304 20.768C71.0264 20.832 71.2184 20.928 71.5064 21.056C71.8264 21.152 72.8664 21.536 74.6264 22.208C74.5624 22.272 74.4664 22.32 74.3384 22.352C74.2424 22.384 73.8744 22.464 73.2344 22.592C73.2024 22.592 72.7224 22.704 71.7944 22.928C70.8664 23.12 70.3864 23.2 70.3544 23.168C69.5864 23.424 68.7544 23.616 67.8584 23.744C67.8584 23.744 67.7464 24 67.5224 24.512C67.1384 24.992 66.9784 25.2 67.0424 25.136C67.0424 25.168 67.0424 25.168 67.0424 25.136C67.0424 25.104 67.0424 25.088 67.0424 25.088C66.9464 25.28 66.8664 25.456 66.8024 25.616C66.7384 25.776 66.6744 25.92 66.6104 26.048L66.7544 26.096C66.5624 26.48 66.4184 26.784 66.3224 27.008C65.8424 28.864 65.2504 30.4 64.5464 31.616C63.8424 32.8 63.1064 34.256 62.3384 35.984C62.0504 35.952 61.8104 35.904 61.6184 35.84C61.4264 35.776 60.8984 35.584 60.0344 35.264C59.8424 34.88 59.6984 34.48 59.6024 34.064C59.5064 33.648 59.4104 33.232 59.3144 32.816C59.3144 32.816 59.0424 32.816 58.4984 32.816C59.1704 31.536 59.8424 30.256 60.5144 28.976C61.2184 27.664 61.9064 26.352 62.5784 25.04H62.7224C62.7864 24.848 62.8664 24.64 62.9624 24.416C63.0584 24.16 63.1544 23.888 63.2504 23.6C62.7704 23.728 62.2904 23.824 61.8104 23.888C61.3304 23.952 60.8824 24.064 60.4664 24.224C59.0904 24.256 58.3704 24.304 58.3064 24.368C58.2744 24.4 57.6184 24.448 56.3384 24.512C56.1464 24.576 55.8584 24.64 55.4744 24.704C54.8024 24.704 53.9544 24.368 52.9304 23.696C51.9384 22.992 50.9144 22.432 49.8584 22.016C49.7304 21.76 49.6984 21.504 49.7624 21.248C49.4104 21.056 49.1544 20.928 48.9944 20.864C49.1224 20.32 49.4424 20 49.9544 19.904C50.4984 19.808 50.8184 19.472 50.9144 18.896C52.7384 16.944 54.4024 15.472 55.9064 14.48C57.4424 13.456 59.2184 11.84 61.2344 9.632Z" fill="black"/>
</svg>
